<?xml version="1.0" encoding="UTF-8" standalone="no"?>
<!-- Created with Inkscape (http://www.inkscape.org/) -->

<svg
   xmlns:dc="http://purl.org/dc/elements/1.1/"
   xmlns:cc="http://creativecommons.org/ns#"
   xmlns:rdf="http://www.w3.org/1999/02/22-rdf-syntax-ns#"
   xmlns:svg="http://www.w3.org/2000/svg"
   xmlns="http://www.w3.org/2000/svg"
   xmlns:sodipodi="http://sodipodi.sourceforge.net/DTD/sodipodi-0.dtd"
   xmlns:inkscape="http://www.inkscape.org/namespaces/inkscape"
   width="141.67598"
   height="150.35593"
   id="svg3353"
   version="1.1"
   inkscape:version="0.48.4 r9939"
   sodipodi:docname="Nuovo documento 2">
  <defs
     id="defs3" />
  <sodipodi:namedview
     inkscape:document-units="mm"
     id="base"
     pagecolor="#ffffff"
     bordercolor="#666666"
     borderopacity="1.0"
     inkscape:pageopacity="0.0"
     inkscape:pageshadow="2"
     inkscape:zoom="0.35"
     inkscape:cx="26.552265"
     inkscape:cy="-13.393468"
     inkscape:current-layer="layer1"
     showgrid="false"
     units="mm"
     fit-margin-top="0"
     fit-margin-left="0"
     fit-margin-right="0"
     fit-margin-bottom="0"
     inkscape:window-width="1366"
     inkscape:window-height="716"
     inkscape:window-x="0"
     inkscape:window-y="28"
     inkscape:window-maximized="1" />
  <metadata
     id="metadata4">
    <rdf:RDF>
      <cc:Work
         rdf:about="">
        <dc:format>image/svg+xml</dc:format>
        <dc:type
           rdf:resource="http://purl.org/dc/dcmitype/StillImage" />
        <dc:title></dc:title>
      </cc:Work>
    </rdf:RDF>
  </metadata>
  <g
     inkscape:label="Layer 1"
     inkscape:groupmode="layer"
     id="layer1"
     transform="translate(-323.44773,-368.61278)">
    <g
       style="display:inline"
       id="g3554"
       transform="matrix(1.3884176,0,0,1.3884176,1043.7082,-777.93146)">
      <path
         style="fill:#000000;fill-opacity:1;stroke:none"
         d="m -518.74733,831.14683 0,0.56238 c 0,0.62487 0.10718,0.66508 3.75869,1.49493 2.4835,0.5644 3.45985,1.17449 4.24989,2.64105 1.21946,2.26369 1.2173,2.18619 1.2173,24.57387 0,22.4002 -0.007,22.60867 -1.21018,24.83726 -0.9902,1.83474 -2.45246,2.63298 -6.535,3.55937 -1.39003,0.31542 -1.70262,0.64978 -1.38104,1.48782 0.11758,0.30641 0.44921,0.33835 2.2424,0.21356 1.15635,-0.0805 6.76423,-0.19881 12.46491,-0.2634 12.1067,-0.13715 14.59181,-0.31408 18.70803,-1.33832 7.2391,-1.8013 14.01045,-5.35825 19.44838,-10.2225 l 1.139,-1.0251 -0.44136,-0.48407 c -0.67536,-0.75001 -1.69161,-1.30785 -3.31733,-1.80816 -2.78058,-0.85571 -2.50586,-0.92524 -4.10751,1.04645 -5.67103,6.98127 -12.98056,11.03768 -20.88637,11.58218 -1.97752,0.1362 -2.38526,0.0936 -3.28885,-0.3061 -1.27415,-0.56362 -1.89559,-1.40855 -2.41325,-3.28174 -0.36858,-1.33371 -0.39865,-3.15438 -0.39865,-23.19995 0,-20.16297 0.0276,-21.87153 0.40577,-23.34945 0.22438,-0.87703 0.6756,-1.97071 0.99662,-2.4346 1.05249,-1.52095 1.4169,-1.8846 5.06854,-1.77969 6.85593,0.0396 13.96038,0.3438 20.06771,3.24614 2.01086,0.98595 2.68261,1.46189 4.22853,3.00411 2.00883,2.00403 3.12523,3.91035 4.00072,6.84822 0.61149,2.05197 0.82723,6.95758 0.44137,10.02318 -0.53745,4.26982 -2.27119,9.8623 -4.12887,13.31203 -0.36619,0.68002 -0.66916,1.32071 -0.66916,1.42375 0,0.10304 2.10035,0.18509 4.66277,0.18509 l 4.65565,0 0.66204,-0.96815 c 2.0373,-2.96692 4.45941,-9.07336 5.1682,-13.04152 0.57915,-3.2423 0.69913,-7.83339 0.2634,-10.13708 -1.39137,-7.35601 -7.57857,-11.94679 -19.17075,-14.23035 -11.59977,-2.01379 -24.79027,-1.95853 -34.11298,-2.05731 l -11.78862,-0.1139 z m 21.75485,42.10731 0,0.51967 c 0,0.46591 0.21792,0.5845 1.92206,1.03221 3.80602,0.99992 4.57023,2.3449 4.57023,8.02282 0,1.60171 0.066,2.98464 0.14949,3.06817 0.27651,0.2765 0.87986,0.16084 3.21767,-0.62645 2.88937,-0.97304 5.49723,-2.36091 5.61668,-2.98275 0.0481,-0.25058 0.2011,-1.36723 0.33458,-2.48444 0.3915,-3.27688 1.47607,-4.37966 5.11125,-5.1682 1.29629,-0.28119 1.80269,-0.69598 1.3668,-1.13188 -0.12713,-0.12712 -4.69996,-0.22466 -11.25472,-0.23491 l -11.03404,-0.0142 z m 70.35445,0.0142 c -8.32024,6.8e-4 -12.294,0.0711 -12.44355,0.22068 -0.43875,0.43875 0.24288,0.85617 2.25664,1.38815 1.61749,0.42729 2.11982,0.67472 2.83326,1.38815 0.47701,0.47702 0.99756,1.259 1.15323,1.73697 0.46942,1.44129 0.54494,16.20775 0.0997,19.17787 -0.82083,5.47521 -2.63078,9.70523 -5.33905,12.47914 -3.43468,3.51791 -8.43483,6.201 -13.74627,7.37501 -0.71869,0.15885 -1.45189,0.45524 -1.62307,0.65492 -0.6152,0.71771 -2.0328,4.44437 -2.66953,7.01908 -0.35709,1.44397 -0.703,2.6749 -0.76882,2.74071 -0.14659,0.14659 -0.18612,0.0262 -0.90408,-2.67664 -0.64258,-2.41908 -2.22923,-6.48011 -2.76207,-7.06891 -0.19114,-0.21119 -1.18372,-0.56914 -2.20681,-0.79018 -7.06413,-1.5263 -12.11975,-5.13657 -15.18426,-10.84183 -2.1061,-3.92097 -3.15211,-8.03489 -3.40987,-13.41881 -0.12169,-2.54187 -0.20876,-3.0716 -0.49119,-3.0397 -0.18794,0.0212 -1.3668,0.31323 -2.6197,0.64068 -1.25289,0.32746 -3.09807,0.72079 -4.10039,0.87561 l -1.82239,0.27763 0.0427,2.46308 c 0.086,4.65692 1.05164,9.78089 2.57698,13.68221 2.94587,7.53456 10.55551,13.69152 20.84365,16.8714 4.13801,1.27898 4.55337,1.45148 5.64516,2.28511 0.55572,0.42432 1.39521,1.33876 1.85799,2.03596 0.80686,1.2156 1.95053,3.56168 1.95053,3.99361 0,0.11356 0.0985,0.4688 0.22068,0.79018 0.30271,0.79618 0.62529,0.73333 0.80442,-0.15661 0.082,-0.4072 0.61064,-1.68614 1.17459,-2.84038 0.78838,-1.61359 1.33239,-2.3836 2.3563,-3.33157 1.28529,-1.18995 1.47623,-1.27586 5.396,-2.53427 13.25349,-4.25486 20.59984,-11.14944 22.94368,-21.51281 0.89784,-3.96984 1.08551,-6.23885 1.26002,-15.28392 0.11837,-6.13538 0.26756,-9.28797 0.46271,-9.90928 0.48042,-1.52949 1.6928,-2.46765 4.02209,-3.10377 1.71288,-0.46777 2.03119,-0.62985 2.09291,-1.06069 0.04,-0.27946 -0.0112,-0.50497 -0.1139,-0.50543 -3.75866,-0.0156 -7.01485,-0.0216 -9.78826,-0.0213 z m -41.2673,0.0142 c -0.17975,0.003 -0.27133,0.2089 -0.2278,0.51255 0.0616,0.43011 0.35805,0.58327 1.92918,0.98239 3.31612,0.8424 4.24262,1.89682 4.62717,5.25362 0.13643,1.19093 0.23378,8.56338 0.23492,17.82531 0.002,15.08236 0.019,15.82425 0.42712,16.40157 0.78412,1.10908 2.69448,5.14373 3.23191,6.81974 0.29192,0.91036 0.61999,1.62286 0.72611,1.58748 0.10612,-0.0354 0.4941,-0.95728 0.86137,-2.0502 0.76162,-2.26649 1.63772,-4.07758 2.80478,-5.80888 l 0.80442,-1.20307 0.0854,-17.13479 c 0.0899,-19.30846 0.0404,-18.7421 1.74409,-20.28127 0.81981,-0.74065 1.32898,-0.9507 4.12175,-1.68002 0.56826,-0.1484 0.8166,-0.35199 0.86848,-0.71188 0.04,-0.27772 -0.0112,-0.50406 -0.1139,-0.50543 -0.39164,-0.005 -21.83932,-0.0123 -22.12502,-0.007 z"
         id="path3152"
         inkscape:connector-curvature="0" />
      <path
         style="fill:#000000;fill-opacity:1;stroke:none"
         d="m -494.1684,861.38381 c -0.60047,-1.52342 -0.80364,-4.40561 -0.29845,-6.48989 0.50344,-2.07706 2.022,-5.26221 2.022,-5.26221 0,0 1.23222,6.88086 2.50586,6.49449 0.71839,-0.27567 2.63064,-5.57682 2.62583,-7.2793 -0.003,-1.22647 -0.46039,-2.87468 -1.27555,-4.60119 -0.48056,-1.0178 -1.43458,-6.14859 -1.51461,-7.16325 -0.31918,-4.95103 3.79053,-10.80646 7.25013,-11.29039 -2.61358,2.51039 -2.90146,8.3009 -2.49247,9.49945 0.40899,1.19855 2.31613,4.61344 3.28484,5.80263 1.70134,2.08857 2.52838,4.48403 2.9629,7.98742 0.11539,0.93041 0.10901,1.83855 0.27701,1.97686 1.68961,-2.06768 2.43589,-7.18363 2.36949,-9.50113 0.59871,0.19589 2.8521,7.92415 3.14861,10.76677 0.64124,6.14757 -1.96348,11.81748 -6.9196,15.4695 -1.18876,0.87596 -3.32213,2.31753 -5.14036,2.27474 -3.63954,-0.0857 -7.63643,-5.83366 -8.80563,-8.6845 z"
         id="path3142"
         inkscape:connector-curvature="0"
         sodipodi:nodetypes="csccsscczssccsssc" />
      <path
         style="fill:#ffffff;fill-opacity:1;stroke:none"
         d="m -475.59422,859.14345 c 0.55122,-2.60729 0.96187,-9.54445 0.64544,-9.91838 -1.60333,4.00957 -2.07933,4.62027 -4.17631,6.83681 -1.08555,0.97601 -1.65566,1.2997 -1.90822,0.88366 -0.057,-0.094 -0.0108,-0.87703 0.10289,-1.56613 0.37579,-2.27882 0.0909,-6.00513 -0.35698,-7.1472 -1.04156,-3.07788 -4.2784,-5.80448 -4.88218,-6.43116 2.97741,8.85519 -0.69407,10.65304 -2.5827,15.5498 -0.27544,0.93621 -0.42419,2.61419 -0.58143,2.61419 -0.44835,0 -1.79415,-1.49648 -2.58165,-3.30801 -0.39728,-0.91387 -0.86249,-2.01999 -0.86249,-2.01999 0,0 -1.03149,2.96547 -0.49674,4.86584 3.91768,13.92242 15.05924,9.57296 17.68037,-0.35943 z"
         id="path3072"
         inkscape:connector-curvature="0"
         sodipodi:nodetypes="cccsccccsscsc" />
      <path
         sodipodi:nodetypes="ccccssc"
         inkscape:connector-curvature="0"
         id="path3204"
         d="m -477.51372,863.14652 c 0.36859,-1.74345 1.10341,-6.6411 0.89182,-6.89114 -0.0582,1.1234 -3.96203,4.82653 -4.55762,3.95447 -1.49814,-2.07642 -2.68239,-4.08471 -1.88129,-9.86801 -3.21199,3.81421 -4.82488,8.65167 -5.33802,12.50145 -0.11925,0.89465 -0.46995,5.42678 3.46719,5.37511 3.11071,-0.0408 6.0167,-2.40046 7.41792,-5.07188 z"
         style="fill:#000000;fill-opacity:1;stroke:none" />
    </g>
  </g>
</svg>
