<?xml version="1.0" encoding="UTF-8" standalone="no"?>
<!-- Created with Inkscape (http://www.inkscape.org/) -->

<svg
   xmlns:dc="http://purl.org/dc/elements/1.1/"
   xmlns:cc="http://creativecommons.org/ns#"
   xmlns:rdf="http://www.w3.org/1999/02/22-rdf-syntax-ns#"
   xmlns:svg="http://www.w3.org/2000/svg"
   xmlns="http://www.w3.org/2000/svg"
   xmlns:xlink="http://www.w3.org/1999/xlink"
   xmlns:sodipodi="http://sodipodi.sourceforge.net/DTD/sodipodi-0.dtd"
   xmlns:inkscape="http://www.inkscape.org/namespaces/inkscape"
   width="500"
   height="500"
   id="svg2"
   version="1.1"
   inkscape:version="0.48.4 r9939"
   sodipodi:docname="disegno.svg">
  <defs
     id="defs4">
    <linearGradient
       id="linearGradient4022">
      <stop
         style="stop-color:#f9f702;stop-opacity:1;"
         offset="0"
         id="stop4024" />
      <stop
         style="stop-color:#faffe0;stop-opacity:1;"
         offset="1"
         id="stop4026" />
    </linearGradient>
    <linearGradient
       id="linearGradient3238">
      <stop
         style="stop-color:#e20902;stop-opacity:1;"
         offset="0"
         id="stop3240" />
      <stop
         style="stop-color:#ffe709;stop-opacity:1"
         offset="1"
         id="stop3242" />
    </linearGradient>
    <linearGradient
       id="linearGradient3220">
      <stop
         id="stop3228"
         offset="0"
         style="stop-color:#a21311;stop-opacity:1;" />
      <stop
         style="stop-color:#32231e;stop-opacity:1"
         offset="1"
         id="stop3224" />
    </linearGradient>
    <linearGradient
       inkscape:collect="always"
       xlink:href="#linearGradient3238"
       id="linearGradient3244"
       x1="279.63104"
       y1="480.20639"
       x2="289.73257"
       y2="305.45001"
       gradientUnits="userSpaceOnUse" />
    <linearGradient
       inkscape:collect="always"
       xlink:href="#linearGradient3238"
       id="linearGradient4020"
       x1="287.92206"
       y1="479.22195"
       x2="288.20819"
       y2="420.63312"
       gradientUnits="userSpaceOnUse" />
    <linearGradient
       inkscape:collect="always"
       xlink:href="#linearGradient4022"
       id="linearGradient4036"
       x1="286.70209"
       y1="475.15564"
       x2="286.70209"
       y2="376.16068"
       gradientUnits="userSpaceOnUse" />
    <radialGradient
       inkscape:collect="always"
       xlink:href="#linearGradient3220"
       id="radialGradient4070"
       cx="242.67128"
       cy="164.79263"
       fx="242.67128"
       fy="164.79263"
       r="223.97179"
       gradientTransform="matrix(-1.1427136,0.35188319,-0.396243,-1.2867687,632.59595,288.94685)"
       gradientUnits="userSpaceOnUse" />
  </defs>
  <sodipodi:namedview
     id="base"
     pagecolor="#ffffff"
     bordercolor="#666666"
     borderopacity="1.0"
     inkscape:pageopacity="0.0"
     inkscape:pageshadow="2"
     inkscape:zoom="0.49497475"
     inkscape:cx="467.60981"
     inkscape:cy="161.74608"
     inkscape:document-units="px"
     inkscape:current-layer="layer2"
     showgrid="false"
     fit-margin-top="0"
     fit-margin-left="0"
     fit-margin-right="0"
     fit-margin-bottom="0"
     inkscape:window-width="1366"
     inkscape:window-height="716"
     inkscape:window-x="0"
     inkscape:window-y="28"
     inkscape:window-maximized="1" />
  <metadata
     id="metadata7">
    <rdf:RDF>
      <cc:Work
         rdf:about="">
        <dc:format>image/svg+xml</dc:format>
        <dc:type
           rdf:resource="http://purl.org/dc/dcmitype/StillImage" />
        <dc:title></dc:title>
      </cc:Work>
    </rdf:RDF>
  </metadata>
  <g
     inkscape:label="Livello 1"
     inkscape:groupmode="layer"
     id="layer1"
     style="display:inline"
     transform="translate(-122.04724,-276.18109)">
    <path
       style="fill:url(#radialGradient4070);fill-opacity:1;stroke:none"
       d="m 16.09375,32.0625 0,2.46875 c 0,2.74307 0.47048,2.91961 16.5,6.5625 10.90212,2.47763 15.18812,5.15582 18.65625,11.59375 5.35321,9.9372 5.34375,9.59699 5.34375,107.875 0,98.33296 -0.03261,99.24813 -5.3125,109.03125 -4.34679,8.05416 -10.76586,11.55831 -28.6875,15.625 -6.10196,1.38462 -7.47421,2.85241 -6.0625,6.53125 0.51616,1.34511 1.97192,1.48533 9.84375,0.9375 5.07616,-0.35328 29.69375,-0.87275 54.71875,-1.15625 53.1463,-0.60208 64.05551,-1.37878 82.125,-5.875 31.7784,-7.9074 61.50343,-23.52179 85.375,-44.875 l 5,-4.5 -1.9375,-2.125 c -2.96469,-3.29243 -7.42586,-5.74123 -14.5625,-7.9375 -12.20623,-3.75642 -11.00029,-4.06163 -18.03125,4.59375 -24.89484,30.64652 -56.98239,48.45348 -91.6875,50.84375 -8.68098,0.59789 -10.47087,0.41087 -14.4375,-1.34375 -5.59327,-2.47417 -8.32131,-6.18329 -10.59375,-14.40625 -1.61799,-5.85475 -1.75,-13.84718 -1.75,-101.84375 0,-88.51191 0.12135,-96.01222 1.78125,-102.5 0.98503,-3.85 2.9658,-8.65109 4.375,-10.6875 4.62026,-6.67668 6.21996,-8.273048 22.25,-7.8125 30.09637,0.173941 61.28367,1.50921 88.09375,14.25 8.82734,4.32813 11.77621,6.41743 18.5625,13.1875 8.81842,8.79735 13.71924,17.16575 17.5625,30.0625 2.68433,9.00776 3.63139,30.54255 1.9375,44 -2.35929,18.74377 -9.97011,43.29378 -18.125,58.4375 -1.60751,2.98517 -2.9375,5.79767 -2.9375,6.25 0,0.45233 9.22017,0.8125 20.46875,0.8125 l 20.4375,0 2.90625,-4.25 c 8.94336,-13.02427 19.57601,-39.83047 22.6875,-57.25 2.54233,-14.2331 3.06906,-34.3872 1.15625,-44.5 C 295.64214,71.77091 268.48142,51.61819 217.59375,41.59375 166.67281,32.753566 108.76878,32.99616 67.84375,32.5625 l -51.75,-0.5 z m 95.5,184.84375 0,2.28125 c 0,2.04527 0.95664,2.56588 8.4375,4.53125 16.70776,4.38948 20.0625,10.2937 20.0625,35.21875 0,7.03127 0.28958,13.10209 0.65625,13.46875 1.21381,1.21381 3.86245,0.70608 14.125,-2.75 12.68383,-4.27148 24.13187,-10.36397 24.65625,-13.09375 0.2113,-1.1 0.88281,-6.00192 1.46875,-10.90625 1.71861,-14.38493 6.47968,-19.22595 22.4375,-22.6875 5.69049,-1.23438 7.9135,-3.05525 6,-4.96875 -0.55806,-0.55806 -20.632,-0.98625 -49.40625,-1.03125 l -48.4375,-0.0625 z m 308.84375,0.0625 c -36.52438,0.003 -53.96852,0.31227 -54.625,0.96875 -1.92605,1.92605 1.06621,3.75846 9.90625,6.09375 7.10048,1.87575 9.30566,2.96191 12.4375,6.09375 2.09402,2.09402 4.37913,5.52678 5.0625,7.625 2.06065,6.327 2.39218,71.14917 0.4375,84.1875 -3.60332,24.0352 -11.5487,42.60425 -23.4375,54.78125 -15.07765,15.443 -37.02746,27.2213 -60.34375,32.375 -3.15492,0.6973 -6.37354,1.9984 -7.125,2.875 -2.70062,3.1506 -8.92361,19.51 -11.71875,30.8125 -1.56758,6.3388 -3.08606,11.74235 -3.375,12.03125 -0.6435,0.6435 -0.81703,0.1151 -3.96875,-11.75 -2.82079,-10.6193 -9.78593,-28.44655 -12.125,-31.03125 -0.83907,-0.9271 -5.19633,-2.49845 -9.6875,-3.46875 -31.01031,-6.7002 -53.20361,-22.54865 -66.65625,-47.59375 -9.24543,-17.2124 -13.83724,-35.27177 -14.96875,-58.90625 -0.53421,-11.15837 -0.91643,-13.48378 -2.15625,-13.34375 -0.825,0.0932 -6,1.37503 -11.5,2.8125 -5.5,1.43747 -13.6,3.16414 -18,3.84375 l -8,1.21875 0.1875,10.8125 c 0.3777,20.44306 4.61652,42.9364 11.3125,60.0625 12.93183,33.0754 46.33686,60.1034 91.5,74.0625 18.16512,5.6145 19.98848,6.37175 24.78125,10.03125 2.43951,1.8627 6.12472,5.8769 8.15625,8.9375 3.54199,5.3363 8.5625,15.63515 8.5625,17.53125 0,0.4985 0.43236,2.05795 0.96875,3.46875 1.32885,3.4951 2.74489,3.2192 3.53125,-0.6875 0.35979,-1.7875 2.68062,-7.40185 5.15625,-12.46875 3.46085,-7.0834 5.84896,-10.4636 10.34375,-14.625 5.64219,-5.2237 6.48037,-5.6008 23.6875,-11.125 58.18048,-18.6781 90.4297,-48.9441 100.71875,-94.4375 3.94136,-17.4269 4.7652,-27.38747 5.53125,-67.09375 0.51962,-26.93323 1.17457,-40.77258 2.03125,-43.5 2.10893,-6.71418 7.43106,-10.83256 17.65625,-13.625 7.51924,-2.05346 8.91655,-2.76495 9.1875,-4.65625 0.17575,-1.22681 -0.0492,-2.21675 -0.5,-2.21875 -16.49987,-0.0684 -30.79396,-0.095 -42.96875,-0.0937 z m -181.15625,0.0625 c -0.78905,0.0143 -1.19108,0.91701 -1,2.25 0.27065,1.88808 1.5718,2.56045 8.46875,4.3125 14.5572,3.69799 18.62437,8.32671 20.3125,23.0625 0.59891,5.22798 1.02625,37.59174 1.03125,78.25 0.008,66.2089 0.0833,69.4657 1.875,72 3.44211,4.8687 11.82827,22.5801 14.1875,29.9375 1.28146,3.9963 2.72165,7.12405 3.1875,6.96875 0.46585,-0.1553 2.16903,-4.2023 3.78125,-9 3.3434,-9.9495 7.18931,-17.8999 12.3125,-25.5 l 3.53125,-5.28125 0.375,-75.21875 c 0.39474,-84.76076 0.17739,-82.27456 7.65625,-89.03125 3.5988,-3.25131 5.83397,-4.1734 18.09375,-7.375 2.49457,-0.65145 3.58475,-1.54514 3.8125,-3.125 0.17575,-1.21915 -0.0492,-2.21275 -0.5,-2.21875 -1.71925,-0.0231 -95.87084,-0.0539 -97.125,-0.0313 z"
       transform="translate(122.04724,276.18109)"
       id="path3152"
       inkscape:connector-curvature="0" />
    <path
       style="fill:url(#linearGradient3244);stroke:none;fill-opacity:1.0"
       d="m 246.03821,440.97866 c -2.63598,-6.68754 -3.52786,-19.33984 -1.31017,-28.48948 2.21001,-9.11793 8.87623,-23.10016 8.87623,-23.10016 0,0 5.40926,30.20577 11.00032,28.50965 3.15357,-1.21014 11.54803,-24.48124 11.5269,-31.95487 -0.0152,-5.38398 -2.02102,-12.61933 -5.59944,-20.19838 -2.10954,-4.46798 -6.29755,-26.99124 -6.64885,-31.44544 -1.40116,-21.73416 16.63978,-47.43848 31.8268,-49.56283 -11.47314,11.02018 -12.7369,36.43951 -10.9415,41.70092 1.7954,5.26141 10.1674,20.2522 14.41985,25.47252 7.46859,9.16849 11.09918,19.6841 13.00662,35.06341 0.50656,4.08433 0.47853,8.0709 1.21604,8.67806 7.4171,-9.07678 10.69312,-31.53491 10.40163,-41.70829 2.62826,0.85991 12.52024,34.78561 13.82186,47.26422 2.81493,26.98675 -8.61934,51.87668 -30.37584,67.90841 -5.21845,3.84532 -14.58356,10.17355 -22.56526,9.9857 -15.97697,-0.37602 -33.52261,-25.60873 -38.65519,-38.12344 z"
       id="path3142"
       inkscape:connector-curvature="0"
       sodipodi:nodetypes="csccsscczssccsssc" />
    <path
       style="fill:url(#linearGradient4036);stroke:none;fill-opacity:1"
       d="m 327.57563,431.14386 c 2.41973,-11.44553 4.22242,-41.89844 2.83336,-43.53994 -7.03837,17.60133 -9.1279,20.28217 -18.33329,30.01242 -4.76538,4.28449 -7.26804,5.70542 -8.37674,3.87908 -0.25041,-0.4125 -0.0472,-3.85 0.45168,-6.875 1.64965,-10.00363 0.39896,-26.36149 -1.56709,-31.375 -4.57228,-13.51135 -18.78142,-25.48064 -21.43191,-28.23163 13.07029,38.87274 -3.04687,46.76495 -11.33762,68.26089 -1.20913,4.10981 -1.8621,11.47582 -2.55236,11.47582 -1.9682,0 -7.87601,-6.56927 -11.33301,-14.52156 -1.74398,-4.01176 -3.78616,-8.8674 -3.78616,-8.8674 0,0 -4.52808,13.01787 -2.18061,21.36017 17.19793,61.11698 66.10743,42.02364 77.61375,-1.57785 z"
       id="path3072"
       inkscape:connector-curvature="0"
       sodipodi:nodetypes="cccsccccsscsc" />
    <path
       sodipodi:nodetypes="ccccssc"
       inkscape:connector-curvature="0"
       id="path3204"
       d="m 319.14936,448.71666 c 1.61804,-7.65345 4.84378,-29.15327 3.91493,-30.25092 -0.25548,4.93156 -17.39265,21.18762 -20.00717,17.35944 -6.57657,-9.11509 -11.77523,-17.93114 -8.25852,-43.31885 -14.10009,16.74372 -21.1804,37.97932 -23.43301,54.87921 -0.52348,3.92737 -2.06297,23.82261 15.22037,23.59578 13.65546,-0.17922 26.41229,-10.53758 32.5634,-22.26466 z"
       style="fill:url(#linearGradient4020);stroke:none;stroke-width:0.66868490000000003;fill-opacity:1" />
  </g>
  <g
     inkscape:groupmode="layer"
     id="layer2"
     inkscape:label="sfondo"
     style="display:none"
     transform="translate(-122.04724,-276.18109)"
     sodipodi:insensitive="true">
    <image
       y="276.18109"
       x="122.04724"
       id="image2993"
       xlink:href="file:///home/allanon/progetti/Sheets_Dungeon_World_ita/src/logo/image.jpg"
       height="500"
       width="500" />
  </g>
</svg>
